# xmcd
#
# Track frame offsets:
#	150
#	16372
#	42246
#	58274
#	75293
#	93066
#	113539
#	130478
#	145932
#	157326
#	175221
#	192715
#	209695
#	224326
#	244356
#	261197
#	275250
#	287630
#
# Disc length: 4089 seconds
#
# Revision: 1
# Processed by: cddbd v1.5.2PL0 Copyright (c) Steve Scherf et al.
# Submitted via: audiograbber 1.83.01
#
DISCID=140ff712
DTITLE=Amy Winehouse - The other side of Amy Winehouse - B-Sides, Remixex and Rar
DTITLE=ities CD 2
DYEAR=1900
DGENRE=Blues
TTITLE0=Valerie (Mark Ronson Version)
TTITLE1=You Know I´m No Good (Skeewiff Remix)
TTITLE2=He Little Rich Girl
TTITLE3=Back To Black (Rumble Strips Remix)
TTITLE4=Fuck Me Pumps (MJ Cole Mix Edit)
TTITLE5=Get Over It ft. JTWR
TTITLE6=Take The Box (The Headquarters Mix)
TTITLE7=You Know I´m No Good (Live Lounge)
TTITLE8=You´re Wondering Now
TTITLE9=Rehab (I can´t Help Myself Remix)
TTITLE10=B Boy Baby (Mutya Buena ft. Amy Winehouse)
TTITLE11=Dont´t Go To Strangers (Duet Withe Paul Weller)
TTITLE12=Beat It (Duet With Charlotte Church)
TTITLE13=In My Bed (Bugz In The Attic Vocal Edit)
TTITLE14=Fool´s Gold
TTITLE15=Tears Dry On Their Own (Eric Clapton Remix)
TTITLE16=Stronger Than Me (A Capella)
TTITLE17=Procrastination
EXTD=
EXTT0=
EXTT1=
EXTT2=
EXTT3=
EXTT4=
EXTT5=
EXTT6=
EXTT7=
EXTT8=
EXTT9=
EXTT10=
EXTT11=
EXTT12=
EXTT13=
EXTT14=
EXTT15=
EXTT16=
EXTT17=
PLAYORDER=
